<?xml version="1.0" encoding="UTF-8" standalone="no"?>
<!DOCTYPE svg PUBLIC "-//W3C//DTD SVG 1.1//EN" "http://www.w3.org/Graphics/SVG/1.1/DTD/svg11.dtd">
<svg xmlns="http://www.w3.org/2000/svg" xmlns:xl="http://www.w3.org/1999/xlink" version="1.1" viewBox="385 102 105 105" width="105pt" height="105pt" xmlns:dc="http://purl.org/dc/elements/1.1/">
  <metadata> Produced by OmniGraffle 7.2.2 
    <dc:date>2021-08-29 17:54:10 +0000</dc:date>
  </metadata>
  <defs/>
  <g stroke="none" stroke-opacity="1" stroke-dasharray="none" fill="none" fill-opacity="1">
    <title>Canvas 1</title>
    <g>
      <title>Layer 1</title>
      <path d="M 397 102.0494 L 477.53125 102.0494 C 484.15867 102.0494 489.53125 107.42198 489.53125 114.0494 L 489.53125 194.58065 C 489.53125 201.20807 484.15867 206.58065 477.53125 206.58065 L 397 206.58065 C 390.3726 206.58065 385 201.20807 385 194.58065 L 385 114.0494 C 385 107.42198 390.3726 102.0494 397 102.0494 Z" fill="#935200"/>
      <path d="M 437.7578 159.83846 C 441.40366 159.83846 444.48436 158.46217 447 155.70955 C 449.51564 152.95694 450.77344 148.57287 450.77344 142.55721 C 450.77344 136.90614 449.57944 132.6041 447.1914 129.65096 C 444.80337 126.69782 441.6042 125.22127 437.59375 125.22127 C 432.12497 125.22127 428.35157 127.79156 426.27344 132.93221 C 425.1797 135.6666 424.6328 139.03896 424.6328 143.0494 C 424.6328 146.51296 425.21614 149.59366 426.3828 152.29159 C 428.4974 157.32286 432.28904 159.83846 437.7578 159.83846 Z M 433.875 111.60409 C 436.8646 111.60409 439.47134 112.05981 441.6953 112.97127 C 445.487 114.53899 448.54947 117.41917 450.8828 121.6119 L 450.8828 113.02596 L 466.03125 113.02596 L 466.03125 169.57284 C 466.03125 177.26558 464.737 183.0624 462.14844 186.96346 C 457.7005 193.67183 449.16933 197.02596 436.5547 197.02596 C 428.93486 197.02596 422.71877 195.53118 417.90625 192.54159 C 413.09373 189.55199 410.4323 185.08589 409.92188 179.14315 L 426.875 179.14315 C 427.3125 180.96607 428.02343 182.27856 429.0078 183.08065 C 430.6849 184.50253 433.5104 185.21346 437.4844 185.21346 C 443.099 185.21346 446.85416 183.33588 448.75 179.58065 C 449.9896 177.17439 450.6094 173.12755 450.6094 167.44002 L 450.6094 163.6119 C 449.1146 166.164 447.5104 168.07804 445.7969 169.35409 C 442.6979 171.72389 438.6693 172.90877 433.71094 172.90877 C 426.05465 172.90877 419.9388 170.22 415.3633 164.84237 C 410.78774 159.46474 408.5 152.18226 408.5 142.99471 C 408.5 134.13529 410.7057 126.68875 415.1172 120.65487 C 419.52867 114.62098 425.7812 111.60409 433.875 111.60409 Z" fill="white"/>
      <path d="M 437.7578 159.83846 C 441.40366 159.83846 444.48436 158.46217 447 155.70955 C 449.51564 152.95694 450.77344 148.57287 450.77344 142.55721 C 450.77344 136.90614 449.57944 132.6041 447.1914 129.65096 C 444.80337 126.69782 441.6042 125.22127 437.59375 125.22127 C 432.12497 125.22127 428.35157 127.79156 426.27344 132.93221 C 425.1797 135.6666 424.6328 139.03896 424.6328 143.0494 C 424.6328 146.51296 425.21614 149.59366 426.3828 152.29159 C 428.4974 157.32286 432.28904 159.83846 437.7578 159.83846 Z M 433.875 111.60409 C 436.8646 111.60409 439.47134 112.05981 441.6953 112.97127 C 445.487 114.53899 448.54947 117.41917 450.8828 121.6119 L 450.8828 113.02596 L 466.03125 113.02596 L 466.03125 169.57284 C 466.03125 177.26558 464.737 183.0624 462.14844 186.96346 C 457.7005 193.67183 449.16933 197.02596 436.5547 197.02596 C 428.93486 197.02596 422.71877 195.53118 417.90625 192.54159 C 413.09373 189.55199 410.4323 185.08589 409.92188 179.14315 L 426.875 179.14315 C 427.3125 180.96607 428.02343 182.27856 429.0078 183.08065 C 430.6849 184.50253 433.5104 185.21346 437.4844 185.21346 C 443.099 185.21346 446.85416 183.33588 448.75 179.58065 C 449.9896 177.17439 450.6094 173.12755 450.6094 167.44002 L 450.6094 163.6119 C 449.1146 166.164 447.5104 168.07804 445.7969 169.35409 C 442.6979 171.72389 438.6693 172.90877 433.71094 172.90877 C 426.05465 172.90877 419.9388 170.22 415.3633 164.84237 C 410.78774 159.46474 408.5 152.18226 408.5 142.99471 C 408.5 134.13529 410.7057 126.68875 415.1172 120.65487 C 419.52867 114.62098 425.7812 111.60409 433.875 111.60409 Z" stroke="#935201" stroke-linecap="round" stroke-linejoin="round" stroke-width="4"/>
    </g>
  </g>
</svg>
